<?xml version="1.0" encoding="UTF-8"?>
<svg width="1981px" height="520px" viewBox="0 0 1981 520" version="1.1" xmlns="http://www.w3.org/2000/svg" xmlns:xlink="http://www.w3.org/1999/xlink">
    <!-- Generator: Sketch 54.1 (76490) - https://sketchapp.com -->
    <title>Artboard</title>
    <desc>Created with Sketch.</desc>
    <defs>
        <linearGradient x1="40.1272397%" y1="105.187807%" x2="67.4175793%" y2="18.2141777%" id="linearGradient-1">
            <stop stop-color="#0078BF" offset="0%"></stop>
            <stop stop-color="#33CCFF" offset="100%"></stop>
        </linearGradient>
        <linearGradient x1="40.1187639%" y1="105.208507%" x2="67.4091292%" y2="18.2348771%" id="linearGradient-2">
            <stop stop-color="#0078BF" offset="0%"></stop>
            <stop stop-color="#33CCFF" offset="100%"></stop>
        </linearGradient>
        <linearGradient x1="32.9316003%" y1="97.7586963%" x2="78.6761209%" y2="14.8322488%" id="linearGradient-3">
            <stop stop-color="#FFC600" offset="0%"></stop>
            <stop stop-color="#F9A4D8" offset="100%"></stop>
        </linearGradient>
        <linearGradient x1="67.0730287%" y1="97.7649356%" x2="21.3561677%" y2="14.8384881%" id="linearGradient-4">
            <stop stop-color="#4EDCCA" offset="0%"></stop>
            <stop stop-color="#33CCFF" offset="100%"></stop>
        </linearGradient>
        <linearGradient x1="-0.0454277286%" y1="49.8668382%" x2="99.9369715%" y2="49.8668382%" id="linearGradient-5">
            <stop stop-color="#4EDCCA" offset="0%"></stop>
            <stop stop-color="#33CCFF" offset="100%"></stop>
        </linearGradient>
        <linearGradient x1="28.7593111%" y1="100.438367%" x2="80.8347602%" y2="16.4113147%" id="linearGradient-6">
            <stop stop-color="#FF6666" offset="0%"></stop>
            <stop stop-color="#FFC600" offset="100%"></stop>
        </linearGradient>
        <linearGradient x1="34.5524479%" y1="90.3787693%" x2="80.5082404%" y2="19.1149927%" id="linearGradient-7">
            <stop stop-color="#33CCFF" offset="0%"></stop>
            <stop stop-color="#0078BF" offset="99.48%"></stop>
        </linearGradient>
    </defs>
    <g id="Artboard" stroke="none" stroke-width="1" fill="none" fill-rule="evenodd">
        <rect fill="#FFFFFF" x="0" y="0" width="1981" height="520"></rect>
        <g id="CanShare" transform="translate(13.000000, 0.000000)">
            <g id="Group-3" transform="translate(189.000000, 297.000000)">
                <g id="Group" transform="translate(0.000000, 65.000000)" stroke="#FF6666" stroke-width="5.6803">
                    <polyline id="Path" points="1.4 99.2 1.4 0.4 185.4 0.4 185.4 100.9"></polyline>
                    <polyline id="Path" points="0.8 58 204.7 58 204.7 100.9"></polyline>
                    <path d="M22.6,59 L22.6,97.5" id="Path"></path>
                    <path d="M1.3,33.7 L186.5,33.7" id="Path"></path>
                    <path d="M0.3,14.4 L184.5,14.4" id="Path"></path>
                </g>
                <g id="Group" transform="translate(146.000000, 0.000000)" fill-rule="nonzero">
                    <path d="M37.4,30.1 C34,37 25.6,39.8 18.5,36.4 C11.4,33 8.4,24.6 11.8,17.7 C15.2,10.8 23.6,8 30.7,11.4 C37.8,14.8 40.8,23.2 37.4,30.1 L37.4,30.1 Z" id="Path" fill="#485F64"></path>
                    <path d="M57.8,66 C53.5,74.7 42.9,78.3 34,73.9 C25.1,69.6 21.3,59 25.6,50.2 C29.9,41.5 40.5,37.9 49.4,42.3 C58.3,46.6 62.1,57.2 57.8,66 L57.8,66 Z" id="Path" fill="#485F64"></path>
                    <path d="M50.7,48.2 C47.3,55.1 38.9,57.9 31.8,54.5 C24.7,51.1 21.7,42.7 25.1,35.8 C28.5,28.9 36.9,26.1 44,29.5 C51,32.9 54,41.3 50.7,48.2 L50.7,48.2 Z" id="Path" fill="#485F64"></path>
                    <path d="M51.9,25.6 C49.3,30.9 42.9,33.1 37.6,30.5 L37.4,24.8 C32.1,22.2 29.9,15.8 32.5,10.5 L34.3,6.9 C36.9,1.6 43.3,-0.6 48.6,2 L51,3.2 C56.3,5.8 58.5,12.2 55.9,17.5 L51.9,25.6 L51.9,25.6 Z" id="Path" fill="#485F64"></path>
                    <path d="M55,9.7 C55,9.7 55,9.6 55,9.7 C55,9.6 55,9.6 55,9.7 C54.9,9.6 54.8,9.5 54.8,9.5 L50.9,14.7 C50.1,15.7 49.2,16.7 48.1,17.4 C45,19.5 41.7,20.2 38.9,19.3 C37.4,22 35.6,24.3 33.9,26.1 C31.9,28.2 27.8,29.3 27.8,29.3 C25,33.3 26.6,44.7 36.6,45.9 C42.6,46.6 41.4,40.3 39.3,36.3 C38.3,34.4 37.4,32.3 37.6,31.3 C38.4,27.7 39.7,27.2 41.8,25.9 C42.1,25.7 42.5,25.6 42.8,25.5 C50.3,30.9 51.9,23.7 54.6,17.8 C57.2,12.9 55.6,10.4 55,9.7 Z" id="Path" fill="#FBC198"></path>
                    <path d="M42.9,85.3 C42.9,85.3 42.4,87.6 53.6,90.5 C64.8,93.4 82,94.8 82,94.8 L56.7,85.8 C56.7,85.7 46.9,82.7 42.9,85.3 L42.9,85.3 Z" id="Path" fill="#FBC198"></path>
                    <path d="M49.1,81.8 C49.1,81.8 38.7,79.5 37.6,85.8 C37,89.4 39,91.2 42.2,91.9 C48.1,93.1 54.8,94.2 54.8,94.2 L60.4,85.6 L49.1,81.8 L49.1,81.8 Z" id="Path" fill="#0078BF"></path>
                    <path d="M49.7,76.6 L46.8,48.1 C46.8,48.1 47,40.6 44.3,40.8 C40.4,41 39.7,47.5 39.3,49.8 C38.6,54.5 37.6,56.4 37.7,68.2 C37.7,75.5 37.2,83.8 37.7,88.7 C38,92.1 41.3,88.3 44.8,88 C51.3,87.4 49.7,76.6 49.7,76.6 L49.7,76.6 Z" id="Path" fill="#0078BF"></path>
                    <polygon id="Path" fill="#FBC198" points="112.3 156.5 121.8 177.2 135 177.5 141.7 176.1 127.3 172.7 119.6 153.5"></polygon>
                    <path d="M123.3,180.4 L125.1,180 L126.1,177.9 L136.8,178.4 L145.4,176.8 C145.4,176.8 145.2,176.1 144.8,175.9 C143.3,175.1 136.6,174.7 136.6,174.7 C136.6,174.7 137.3,176.6 136.5,176.9 C135.7,177.3 127.5,176.8 125.5,176.5 C122.1,176 120.3,175.2 120.5,175.6 C120.7,176.3 123.3,180.4 123.3,180.4 L123.3,180.4 Z" id="Path" fill="#485F64"></path>
                    <path d="M59.5,114.5 L90.6,113.7 L113.8,164.5 L123.4,160.7 L100.8,99.6 C100.8,99.6 99,95.7 89.6,95.7 C80.5,95.7 43.5,94.7 39.3,95.9 C29.4,98.7 61.3,106.1 59.5,114.5 L59.5,114.5 Z" id="Path" fill="#FFC600"></path>
                    <path d="M23.6,104.5 C23.6,104.5 28.2,105.4 29.4,105.9 C31.1,106.5 36.1,105.7 36.1,105.7 C36.1,105.7 36.7,81.2 37.9,72.7 C39.1,64.2 41.3,61.8 41.3,59.2 C41.3,54.9 40.9,53.9 40.2,50.6 C39.4,47.3 41.6,42.9 40.9,43.7 C39.7,45.1 35.2,47.2 31,42.5 C30.2,41.7 23.6,104.5 23.6,104.5 L23.6,104.5 Z" id="Path" fill="#485F64"></path>
                    <path d="M39.8,33.8 C39.8,33.8 46,40.1 45.8,42.1 C45.6,44.2 46.2,52.8 44.8,62 C43.4,71.2 42.2,73.5 42,80.2 C41.8,86.9 43.3,88.4 42.8,96.7 C42.4,103.2 41.3,108.8 41.3,108.8 C41.3,108.8 38.4,109.6 36.2,107.2 C34,104.8 34.8,82.4 35.6,76.8 C36.4,71.3 39.7,56.8 39.5,52.9 C39.3,49 38.1,39.9 37.4,38.6 C35.5,35.7 39.3,34.1 39.8,33.8 L39.8,33.8 Z" id="Path" fill="#1990CC"></path>
                    <path d="M39.8,33.2 C39.8,33.2 39.5,33.7 39,34 C38.2,34.6 37.2,35.7 37.2,35.7 C37.2,35.7 38.4,35.1 38.9,36.2 C39.5,37.5 39.8,40.5 39.8,40.5 C39.8,40.5 42.1,36.7 41.6,35.5 C40.7,33.3 39.8,33.2 39.8,33.2 L39.8,33.2 Z" id="Path" fill="#0078BF"></path>
                    <path d="M31.3,48.1 C28.9,55.8 20.6,60 12.8,57.6 C5,55.2 0.5,47 2.9,39.3 C5.3,31.6 13.6,27.4 21.4,29.8 C29.3,32.3 33.7,40.5 31.3,48.1 L31.3,48.1 Z" id="Path" fill="#485F64"></path>
                    <polygon id="Path" fill="#FBC198" points="81.6 161 82 175.5 85 179 92.8 183.5 98.7 182.4 88.4 174.8 87.6 159.6"></polygon>
                    <path d="M82.5,178.7 L85.1,180.6 L85.9,180 L93.2,184.6 C93.2,184.6 99.8,186.3 101.1,184.8 C101.5,184.3 100.4,183.5 99,182.4 C97.8,181.5 97.1,181.2 97.1,181.2 C97.1,181.2 96.8,182.3 94.2,182.8 C93.4,182.9 88.2,179.5 86.4,178.6 C83.2,177 81.9,174.8 81.8,175 C81.3,175.4 82.5,178.7 82.5,178.7 L82.5,178.7 Z" id="Path" fill="#485F64"></path>
                    <path d="M19.9,84.8 L23.7,93.7 L30.2,94.5 L82.3,97.8 C82.3,97.8 87,96.4 89.9,103.7 C94.1,114.2 88.6,166.7 88.6,166.7 L80.9,166.6 L76.7,117.1 C76.7,117.1 26.6,125.9 12.2,121.4 C6.7,119.7 2.4,109.9 3.2,100.1 C3.8,92.4 9,85.2 9,85.2 L19.9,84.8 L19.9,84.8 Z" id="Path" fill="#FFC600"></path>
                    <path d="M27,103.4 C27,103.4 29.4,81.6 30.8,71.2 C32.2,60.9 31.9,43.5 32.2,41 C32.5,38.5 33.8,34.9 33.8,34.9 C33.8,34.9 31.3,29.3 28,29.4 C25.1,29.6 16,32.6 11.6,34.4 C8.5,35.6 10.1,70.5 9.9,72.3 C8.9,78.9 5.7,86.5 3.6,91.7 C1.9,95.9 0.6,102.1 0.6,102.1 C0.6,102.1 17.2,100.3 27,103.4 L27,103.4 Z" id="Path" fill="#1990CC"></path>
                    <path d="M28.6,27.8 L31.1,30.6 C31.1,30.6 34.5,35.3 33.4,34.7 C32,33.9 30.4,38.8 30.4,38.8 L25.8,29.5 L28.6,27.8 L28.6,27.8 Z" id="Path" fill="#0078BF"></path>
                    <g transform="translate(8.000000, 78.000000)" fill="#FBC198" id="Path">
                        <path d="M0.7,2.9 C0.7,2.9 -3.1,5.6 11.3,7.1 C25.7,8.6 47.2,7.5 47.2,7.5 L14.3,1.3 C14.2,1.2 5.1,-0.6 0.7,2.9 L0.7,2.9 Z"></path>
                        <path d="M35.7,7.3 C42.5,8.2 45,11.7 47.6,13 C50.2,14.3 52.7,16.1 52.7,16.1 C51.5,13.2 49.4,12.9 48.4,11.9 C47.4,10.9 47.6,11.4 50.1,11.5 C51.5,11.6 53.6,14.1 55.2,15.6 C56.6,16.9 57.5,17.1 57.5,17.1 C57.5,17.1 56,14.6 54,12.5 C51.6,10 48.5,7.7 47.7,7.3 C46.3,6.6 41.8,5.8 38.5,5.8 C34.7,5.8 30.8,6.6 35.7,7.3 L35.7,7.3 Z"></path>
                    </g>
                    <path d="M55.3,85.4 C55.3,85.4 60.4,87.3 61.2,88 C61.8,88.5 64.1,91.4 64.1,91.4 C64.1,91.4 62.2,90.9 61.2,89.7 C60.2,88.7 55.3,85.4 55.3,85.4 L55.3,85.4 Z" id="Path" fill="#FBC198"></path>
                    <path d="M17.2,76.8 L21.9,45.1 C21.9,45.1 20.7,38.6 18.7,36.3 C16.3,33.6 11.7,34.4 11.7,34.4 C11.7,34.4 6.3,38.8 6,63.9 C5.7,81.1 4.2,88.2 11.6,88.9 C18.5,89.6 26.4,90 26.4,90 L31.6,79.6 L17.2,76.8 L17.2,76.8 Z" id="Path" fill="#0078BF"></path>
                    <path d="M52.1,94.3 L52.1,94.3 L52.1,93.1 L100.2,93.1 L100.2,94.3 L100.2,94.3 L100.1,94.5 C99.5,95.5 98.4,95.7 97.1,95.7 L55.3,95.7 C54,95.7 52.9,95.5 52.3,94.5 L52.1,94.3 L52.1,94.3 Z" id="Path" fill="#CCD9E9"></path>
                    <path d="M63.7,94.5 L63.7,94.5 L63.6,94.7 C63.4,95 63.2,95.2 62.9,95.3 L55.6,95.3 C54.4,95.3 53.3,95.2 52.7,94.3 L52.6,94.1 L52.6,94.1 L52.6,93.5 L63.7,93.5 L63.7,94.5 L63.7,94.5 Z" id="Path" fill="#F1F0F6"></path>
                    <path d="M63.9,93 L70.1,69.4 C70.3,68.8 70.9,68.3 71.5,68.3 L105.2,68.3 C105.8,68.3 106.2,68.8 106,69.4 L99.8,93 L63.9,93 L63.9,93 Z" id="Path" fill="#AEBDDC"></path>
                    <path d="M83,80.7 C82.7,81.9 83.4,82.9 84.6,82.9 C85.8,82.9 87,81.9 87.4,80.7 C87.7,79.5 87,78.5 85.8,78.5 C84.5,78.5 83.3,79.5 83,80.7 L83,80.7 Z" id="Path" fill="#CCD9E9"></path>
                    <polygon id="Path" fill="#F59267" points="51.5 22 53.4 22.8 54.5 17.9"></polygon>
                </g>
            </g>
            <g id="Group" transform="translate(1119.000000, 389.000000)" stroke="#FF6666" stroke-width="4.4732">
                <polyline id="Path" points="160.2 77.8 160.2 0 15.2 0 15.2 79.1"></polyline>
                <polyline id="Path" points="160.6 45.3 0 45.3 0 79.1"></polyline>
                <path d="M143.5,46.1 L143.5,76.4" id="Path"></path>
                <path d="M160.2,26.2 L14.4,26.2" id="Path"></path>
                <path d="M161,11 L16,11" id="Path"></path>
            </g>
            <path d="M336.2,191 L349.6,191 C357.5,191 364,184.6 364,176.6 L364,165.3" id="Path" stroke="#485F64" stroke-width="6.1626"></path>
            <path d="M335.2,214.7 L357.2,214.7 C367.2,214.7 375.3,206.6 375.3,196.6 L375.3,171.5" id="Path" stroke="#485F64" stroke-width="6.1626"></path>
            <path d="M335.2,204.4 L315.4,204.4 C303.6,204.4 294.1,194.9 294.1,183.1 L294.1,155.1" id="Path" stroke="#485F64" stroke-width="6.1626"></path>
            <path d="M333.1,169.5 L333.1,296.8" id="Path" stroke="#485F64" stroke-width="11.298"></path>
            <g id="Group-2" transform="translate(64.000000, 125.000000)" fill-rule="nonzero">
                <rect id="Rectangle" fill="#485F64" x="53.4" y="207.5" width="10.3" height="34.9"></rect>
                <polygon id="Path" fill="url(#linearGradient-1)" points="0 211.6 58.5 -1.42108547e-14 115 210.5"></polygon>
            </g>
            <g id="Group-4" transform="translate(1694.000000, 240.000000)" fill-rule="nonzero">
                <rect id="Rectangle" fill="#485F64" x="53.4" y="207.5" width="10.3" height="34.9"></rect>
                <polygon id="Path" fill="url(#linearGradient-2)" points="0 211.6 58.5 -1.42108547e-14 115 210.6"></polygon>
            </g>
            <path d="M264.3,143.8 C264.3,143.8 276.6,185.9 312.6,185.9 C348.6,185.9 352.7,162.3 352.7,162.3 C352.7,162.3 373.2,189 391.7,173.6 C410.2,158.2 394.8,140.7 394.8,140.7 C394.8,140.7 422.5,94.5 397.9,59.6 C373.2,24.7 341.4,26.7 341.4,26.7 C341.4,26.7 326,7.2 306.5,14.4 C286.9,21.6 292,43.1 292,43.1 C292,43.1 262.2,58.5 266.3,84.2 C266.3,84.2 242.7,94.5 242.7,115 C242.7,135.5 264.3,143.8 264.3,143.8 Z" id="Path" fill="url(#linearGradient-3)" fill-rule="nonzero"></path>
            <path d="M1337.6,233.2 L1324.2,233.2 C1316.3,233.2 1309.8,226.8 1309.8,218.8 L1309.8,207.5" id="Path" stroke="#485F64" stroke-width="6.1626"></path>
            <path d="M1338.6,256.8 L1316.6,256.8 C1306.6,256.8 1298.5,248.7 1298.5,238.7 L1298.5,213.6" id="Path" stroke="#485F64" stroke-width="6.1626"></path>
            <path d="M1338.6,246.5 L1358.4,246.5 C1370.2,246.5 1379.7,237 1379.7,225.2 L1379.7,197.2" id="Path" stroke="#485F64" stroke-width="6.1626"></path>
            <path d="M1340.6,211.6 L1340.6,338.9" id="Path" stroke="#485F64" stroke-width="11.298"></path>
            <path d="M785.6,324.6 L785.6,451.9" id="Path" stroke="#485F64" stroke-width="11.298"></path>
            <path d="M1409.5,185.9 C1409.5,185.9 1397.2,228 1361.2,228 C1325.2,228 1321.1,204.4 1321.1,204.4 C1321.1,204.4 1300.6,231.1 1282.1,215.7 C1263.6,200.3 1279,182.8 1279,182.8 C1279,182.8 1251.3,136.6 1275.9,101.7 C1300.5,66.8 1332.4,68.8 1332.4,68.8 C1332.4,68.8 1347.8,49.3 1367.3,56.5 C1386.8,63.7 1381.7,85.3 1381.7,85.3 C1381.7,85.3 1411.5,100.7 1407.4,126.4 C1407.4,126.4 1431,136.7 1431,157.2 C1431,177.7 1409.5,185.9 1409.5,185.9 Z" id="Path" fill="url(#linearGradient-4)" fill-rule="nonzero"></path>
            <path d="M0.4,104.2 L163.7,104.2 C163.7,104.2 154.3,70.5 120.5,79.1 C118.9,79.5 117.2,80 115.5,80.6 C115.5,80.6 100.1,58 72.4,64.2 C44.7,70.4 42.5,84.7 42.5,84.7 C42.5,84.7 2.4,77.5 0.4,104.2 Z" id="Path" fill="#00ACA0" fill-rule="nonzero"></path>
            <path d="M1080.9,282.5 L1182.6,282.5 C1182.6,282.5 1179.5,268.1 1151.8,271.2 C1151.8,271.2 1142.6,244.5 1112.8,244.5 C1082.9,244.4 1080.9,282.5 1080.9,282.5 Z" id="Path" fill="url(#linearGradient-5)" fill-rule="nonzero"></path>
            <path d="M1810.1,278.2 L1810.1,135.4" id="Path" stroke="#485F64" stroke-width="10.2709"></path>
            <path d="M1812.9,201.3 L1831.3,201.3 C1845.1,201.3 1856.3,190.1 1856.3,176.3 L1856.3,168.3" id="Path" stroke="#485F64" stroke-width="6.1626"></path>
            <path d="M1809.9,215.7 L1794.7,215.7 C1782.2,215.7 1772,205.6 1772,193 L1772,167.2" id="Path" stroke="#485F64" stroke-width="6.1626"></path>
            <path d="M1881.3,108.4 C1884.4,100.2 1886.1,91.3 1886.1,82 C1886.1,40.6 1852.5,7 1811.1,7 C1769.7,7 1736.1,40.6 1736.1,82 C1736.1,90.5 1737.5,98.6 1740.1,106.2 C1723,111.1 1710.4,126.9 1710.4,145.7 C1710.4,168.4 1728.8,186.8 1751.5,186.8 C1771.2,186.8 1787.6,172.9 1791.6,154.5 C1797.8,156.2 1804.3,157.1 1811,157.1 C1816.5,157.1 1821.9,156.5 1827.1,155.3 C1832,171.2 1846.9,182.7 1864.4,182.7 C1886,182.7 1903.4,165.2 1903.4,143.7 C1903.6,128.1 1894.5,114.6 1881.3,108.4 Z" id="Path" fill="url(#linearGradient-6)" fill-rule="nonzero"></path>
            <path d="M1533.8,254.7 L1533.8,130.4" id="Path" stroke="#485F64" stroke-width="6.1626"></path>
            <rect id="Rectangle" fill="#FF6666" fill-rule="nonzero" x="1526.6" y="251.6" width="15.4" height="52.4"></rect>
            <rect id="Rectangle" fill="#FF6666" fill-rule="nonzero" x="1526.6" y="72.9" width="15.4" height="57.5"></rect>
            <circle id="Oval" fill="#FFC600" fill-rule="nonzero" cx="1534.8" cy="99.6" r="22.6"></circle>
            <g id="Group" transform="translate(1399.000000, 310.000000)">
                <path d="M147.7,28.8 C147.7,28.8 138.7,35.2 135.5,33.6 C132.3,32 118,11.3 124.4,6 C130.8,0.7 147.7,28.8 147.7,28.8 Z" id="Path" fill="#FBC198" fill-rule="nonzero"></path>
                <path d="M142.4,55.8 L138.2,66.9 L103.8,66.9 C103.8,66.9 98,67.4 98.5,73.8 C99,80.2 109.6,71.2 109.6,71.2 C109.6,71.2 132.9,78.6 144.6,76.5 L150.4,59 L142.4,55.8 Z" id="Path" fill="#FBC198" fill-rule="nonzero"></path>
                <path d="M157.3,64.3 C157.3,64.3 156.8,78.6 153.1,81.8 C149.4,85 133,98.8 133,98.8 L129.8,102.3 L122,106.9 C122,106.9 119.2,100.4 125,97.8 C130.8,95.2 133.5,90.9 133.5,90.9 L144.6,76.6 L147.8,59.6 L157.3,64.3 Z" id="Path" fill="#FBC198" fill-rule="nonzero"></path>
                <path d="M158.2,31.9 C158.2,31.9 154.1,23.5 153.6,20.3 L137.7,7.6 L125.5,9.7 C125.5,9.7 131.9,25.6 138.7,27.7 C145.6,29.8 143.5,29.8 143.5,29.8 L149.9,39.3 L158.2,31.9 Z" id="Path" fill="#FBC198" fill-rule="nonzero"></path>
                <polygon id="Path" fill="#13BBE8" fill-rule="nonzero" points="149.9 37.3 139.8 55.8 147.2 58.5"></polygon>
                <path d="M117.5,174 L118,170.3 L111.6,169.5 L110.6,174.5 L113.8,176.1 C113.8,176.1 117,175.6 117.5,174 Z" id="Path" fill="#FBC198" fill-rule="nonzero"></path>
                <polygon id="Path" fill="#FBC198" fill-rule="nonzero" points="148.1 171.4 149.3 176.6 143 175 141.9 171.9"></polygon>
                <path d="M161.2,94.3 C161.2,94.3 128.2,96.1 123.4,106.2 C118.6,116.3 111.2,165.6 111.7,170.3 L118.6,171.4 C118.6,171.4 131.8,135.9 131.8,119.5 L132.9,109.4 L161.2,94.3 Z" id="Path" fill="#066493" fill-rule="nonzero"></path>
                <path d="M160.3,180.9 L194.6,180.9 C197.7,180.9 200.3,178.4 200.3,175.2 L200.3,116 C200.3,112.9 197.8,110.3 194.6,110.3 L160.3,110.3 C157.2,110.3 154.6,112.8 154.6,116 L154.6,175.2 C154.6,178.3 157.2,180.9 160.3,180.9 Z" id="Path" fill="#FFC600" fill-rule="nonzero"></path>
                <path d="M192.3,100.9 C192.3,100.9 194.2,110.7 182.7,110.7 C171.2,110.7 134.6,113.7 134.6,113.7 L148.9,171.5 L141.5,173.1 C141.5,173.1 108.1,107.4 126.1,102.6 C144.1,97.8 164.3,93.6 164.3,93.6 L192.3,100.9 Z" id="Path" fill="#0078BF" fill-rule="nonzero"></path>
                <path d="M148.8,174 L150.4,180.9 L128.7,180.9 L128.7,180 C128.7,178.7 129.6,177.5 130.9,177.2 L142.8,174.4 C142.8,174.4 145.1,176.6 148.8,174 Z" id="Path" fill="#FF6666" fill-rule="nonzero"></path>
                <path d="M117.5,174 L117,180.9 L96.3,180.9 L96.3,180 C96.3,178.7 97.2,177.5 98.5,177.2 L110.4,174.4 C110.5,174.4 113.8,176.6 117.5,174 Z" id="Path" fill="#FF6666" fill-rule="nonzero"></path>
                <path d="M192.3,100.9 L194.4,102 C194.4,102 202.3,71.3 179.6,45.8 C156.8,20.4 149.9,37.3 149.9,37.3 L145.7,59.6 L158.9,68.6 L160,63.8 L160.4,95.7 L192.3,100.9 Z" id="Path" fill="#33CCFF" fill-rule="nonzero"></path>
                <path d="M154.1,20.8 C154.1,20.8 151.5,25 147.7,22.4 C144,19.8 144,18.7 143.5,16 C143,13.4 142.4,13.9 141.4,15.5 C140.3,17.1 140.9,21.3 138.2,17.6 C135.6,13.9 133.4,15.5 127.6,14.4 C121.8,13.3 117,10.7 120.2,8.6 C123.4,6.5 136.6,-1.5 144.6,1.7 C152.5,4.9 154.1,20.8 154.1,20.8 Z" id="Path" fill="#AF734A" fill-rule="nonzero"></path>
                <path d="M113.3,84.4 L113.3,180.9" id="Path" stroke="#485F64" stroke-width="4.2395"></path>
                <rect id="Rectangle" fill="#485F64" fill-rule="nonzero" transform="translate(61.840800, 84.169600) rotate(-180.000000) translate(-61.840800, -84.169600) " x="0.890800035" y="80.2196" width="121.9" height="7.9"></rect>
                <path d="M13.1,84.4 L13.1,180.9" id="Path" stroke="#485F64" stroke-width="4.2395"></path>
                <path d="M84.7,77.5 L119.1,77.5 L119.1,77.5 C119.1,79 117.9,80.1 116.5,80.1 L87.4,80.1 C85.9,80.2 84.7,79 84.7,77.5 L84.7,77.5 Z" id="Path" fill="#AEBDDC" fill-rule="nonzero"></path>
                <polygon id="Path" fill="#AEBDDC" fill-rule="nonzero" points="84.7 77.5 78.3 45.7 80.4 45.2 86.4 77.8"></polygon>
                <polygon id="Path" fill="#F59267" fill-rule="nonzero" points="131.8 26.1 127.1 21.4 129.2 27.7"></polygon>
            </g>
            <path d="M746.5,352.8 L746.5,366.8 C746.5,376.1 754,383.7 763.4,383.7 L786.4,383.7" id="Path" stroke="#485F64" stroke-width="6.1626"></path>
            <path d="M786.4,355.6 L780.1,355.6 C773.2,355.6 767.6,350 767.6,343.1 L767.6,308.1" id="Path" stroke="#485F64" stroke-width="6.1626"></path>
            <path d="M784.7,406.6 L803.6,406.6 C813.2,406.6 821,398.8 821,389.2 L821,389.2" id="Path" stroke="#485F64" stroke-width="6.1626"></path>
            <path d="M842.6,316.3 C840.1,316.3 837.7,316.5 835.4,316.9 C845.6,306.4 851.9,292 851.9,276.2 C851.9,243.9 825.7,217.7 793.4,217.7 C761.1,217.7 734.9,243.9 734.9,276.2 C734.9,283.4 736.2,290.4 738.6,296.8 C733.6,294.8 728.2,293.7 722.6,293.7 C698.8,293.7 679.5,313 679.5,336.8 C679.5,360.6 698.8,379.9 722.6,379.9 C746.4,379.9 765.7,360.6 765.7,336.8 C765.7,333.5 765.3,330.3 764.6,327.1 C773.1,331.9 782.9,334.7 793.4,334.7 C798.8,334.7 803.9,334 808.9,332.6 C803.1,339.9 799.6,349.2 799.6,359.3 C799.6,383.1 818.9,402.4 842.7,402.4 C866.5,402.4 885.8,383.1 885.8,359.3 C885.7,335.7 866.4,316.3 842.6,316.3 Z" id="Path" fill="url(#linearGradient-7)" fill-rule="nonzero"></path>
            <path d="M635.9,412 C605.8,412 581.4,436.2 581,466.2 L690.7,466.2 C690.4,436.2 666,412 635.9,412 Z" id="Path" fill="#4EDCCA" fill-rule="nonzero"></path>
            <path d="M678.4,433.5 C660.3,433.5 645.6,448.1 645.4,466.2 L711.5,466.2 C711.2,448.1 696.5,433.5 678.4,433.5 Z" id="Path" fill="#00ACA0" fill-rule="nonzero"></path>
            <g id="Group" transform="translate(504.000000, 48.000000)" fill-rule="nonzero">
                <path d="M80.8,170.9 C75.5,142.1 66.7,130.2 62.9,132.2 C61.9,132.7 61.3,134.6 61.1,137.4 C61.5,138.9 61.9,140.5 62.3,142.1 C62.3,142.2 62.4,142.3 62.4,142.5 L62,142 C62,142 61.1,156.1 69,169.2 C76.9,182.4 86.6,199.9 86.6,199.9 L86.2,198.5 C86.4,199 86.7,199.4 86.9,199.9 C87.4,200.9 81.1,172.5 80.8,170.9 Z" id="Path" fill="#FBC198"></path>
                <path d="M27.7,206 L35.6,141.9 L46.1,137.5 C46.1,137.5 51.1,157.1 34.1,200.8 L31.2,209.5 L27.7,206 Z" id="Path" fill="#FBC198"></path>
                <path d="M67.5,59.8 L65.4,59.7 C65.7,48.9 64.7,38.9 63.2,38.3 L63.9,36.3 C65.3,36.8 66.9,38.6 67.4,48.9 C67.7,54.3 67.5,59.7 67.5,59.8 Z" id="Path" fill="#126AA0"></path>
                <path d="M9.4,39 L1.2,30.8 C0.8,30.4 0.8,29.7 1.2,29.2 L2.1,28.3 C2.5,27.9 3.2,27.9 3.7,28.3 L11.9,36.5 C12.3,36.9 12.3,37.6 11.9,38.1 L11,39 C10.6,39.5 9.9,39.5 9.4,39 Z" id="Path" fill="#E5E8EC"></path>
                <path d="M14.2,42.6 L7,39.7 L2,34 C2,34 3.4,32.6 4.1,33.3 C4.8,34 8.4,36.9 12,37.6 C15.6,38.3 15.6,40.5 15.6,40.5 L16.3,42.6 L14.2,42.6 L14.2,42.6 Z" id="Path" fill="#FBC198"></path>
                <path d="M36.1,22.2 C36.1,27.6 40.5,32 45.9,32 L48.3,27.4 C53.7,27.4 58.1,19.3 58.1,13.9 L58.1,10.2 C58.1,4.8 53.7,0.4 48.3,0.4 L45.9,0.4 C40.5,0.4 36.1,4.8 36.1,10.2 L36.1,22.2 L36.1,22.2 Z" id="Path" fill="#485F64"></path>
                <path d="M56.5,10 C57,10 57.6,10 58.1,10.1 C58,10.7 57.9,11.4 57.9,12.1 C57.9,18.6 62.9,24 69.3,24.7 C68.3,30.8 63,35.4 56.5,35.4 C49.3,35.4 43.5,29.7 43.5,22.7 C43.5,15.7 49.3,10 56.5,10 L56.5,10 Z" id="Path" fill="#485F64"></path>
                <path d="M40,4.1 C40,5 40.1,5.9 40.2,6.9 C41.2,13.2 45,17.9 49.2,18.5 C49.3,21.3 49.9,23.9 50.6,26.1 C51.4,28.6 54.3,31.2 54.3,31.2 C55,35.6 40.1,42 40.4,41.3 C40.8,40.6 44.4,35.4 45.6,30.7 C46.4,27.4 45.4,24.7 44.1,22.8 C41.8,20.1 37.3,9.6 37.3,9.6 C37.3,7.3 38.4,5.3 40,4.1 L40,4.1 Z" id="Path" fill="#FBC198"></path>
                <path d="M46.6,68.5 C48.2,72.5 57.1,72.5 58.8,68.5 L68.2,39.3 C69.9,35.3 68,31.9 64.2,31.9 L53.8,31.9 L47.8,33.2 L46.3,33.1 L44.9,31.9 L42.4,31.9 C38.5,31.9 36.7,35.2 38.4,39.3 L46.6,68.5 L46.6,68.5 Z" id="Path" fill="#FF6666"></path>
                <path d="M38.1,34.6 L28.7,62.8 C28.7,62.8 28.1,64.8 30,63.5 C32.8,61.7 38.9,55.1 44.4,42 C48.5,32.4 40.6,34.1 38.1,34.6 L38.1,34.6 Z" id="Path" fill="#FF6666"></path>
                <path d="M36,141.7 C36.4,140.1 36.8,138.5 37.1,137 C38.6,134.6 40,133.2 41.2,133.2 C45.5,133.2 47.8,147.8 39,175.8 C38.5,177.4 30.8,205.5 30.8,204.3 C30.6,181.7 34.4,147.4 36,141.7 L36,141.7 Z" id="Path" fill="#FBC198"></path>
                <polygon id="Path" fill="#E55151" points="47.8 33.2 49.6 36.7 55 31.9 53.7 29.9"></polygon>
                <polygon id="Path" fill="#E55151" points="45 30.7 46.2 33.1 43.9 36.6 43.4 31.8"></polygon>
                <path d="M50,69.3 C49.4,69.1 48.9,69 48.4,68.8 C45.6,56.8 43.2,44.7 46.4,33.4 C46.8,33.6 47.2,33.6 47.7,33.5 C44.4,45 47.1,57 50,69.3 L50,69.3 Z" id="Path" fill="#E55151"></path>
                <path d="M33.9,149.9 C33.7,148.9 33.6,147.8 33.6,146.7 C33.8,140.2 33.6,133.5 34.6,121.1 C35.6,109 38,91.2 43.1,70.6 C43.6,68.5 44.2,66.7 44.9,65.2 C49.5,64.6 54.3,67.7 59.1,69.1 C60.9,72.4 62.4,76.3 63.5,81 C68.7,102.4 71.3,114.7 72.7,125.1 C74.1,135.1 74.3,143.2 75,148.6 C61.7,170.6 48.1,129.5 33.9,149.9 L33.9,149.9 Z" id="Path" fill="#1370B5"></path>
                <path d="M13.9,42.7 C15.7,47.6 20.3,54.3 26.4,61.1 C27.1,61.9 27.8,62.7 28.5,63.4 C29.6,64.5 31.3,61.8 30.2,59.3 C28.1,54.5 24,49.7 18.6,43.5 C17.7,42.4 16.7,41.4 15.8,40.5 C15.1,41.1 14.4,42 13.9,42.7 L13.9,42.7 Z" id="Path" fill="#FF6666"></path>
                <path d="M17.2,204.3 C17.2,204.3 18.8,204.3 22.7,205.1 C25,205.6 26.6,206.3 27.7,205.8 C29.5,205 30.9,197 31.2,191.2 C31.2,190.6 35.2,189 35,189.7 C32.6,199.1 32.5,205 32.3,206.3 C31.9,208.5 30.9,210.5 29.8,210.6 C27.7,210.7 17.9,206.2 17.1,205.8 C16.3,205.5 17.1,204 17.2,204.3 L17.2,204.3 Z" id="Path" fill="#FBC198"></path>
                <path d="M91.3,205.9 C92.2,211.5 91.8,216.3 90.3,216.5 C88.8,216.7 86.9,212.4 85.9,206.8 C85,201.2 85.4,196.4 86.9,196.2 C88.4,196 90.4,200.3 91.3,205.9 L91.3,205.9 Z" id="Path" fill="#485F64"></path>
                <path d="M90.2,203 C91.5,207 90.9,211 89.4,211.2 C87.9,211.4 86.3,208.4 85.8,204.2 C85.2,198.9 85.5,196.7 83.8,193.8 C82,190.8 81.8,187.9 82.2,187.4 C82.6,187 84.6,188.1 84.8,189.6 C85.2,191.8 86.1,193.8 86.5,194.4 C87.6,196.2 88.8,198.9 90.2,203 L90.2,203 Z" id="Path" fill="#FBC198"></path>
                <path d="M19.6,204.5 C18,206.6 25.7,208.7 27.9,208.9 C29.9,209.1 31.2,209.4 31.2,209.4 L31.4,209.5 L31.4,209.7 C30.9,211 30.7,213 28.6,212.1 L15.5,206.6 C4.8,202.1 19.6,204.5 19.6,204.5 L19.6,204.5 Z" id="Path" fill="#485F64"></path>
                <path d="M15.6,40.4 C15.6,40.4 14.9,35.4 14.2,34 C13.5,32.6 12.8,38.3 12.8,38.3 L15.6,40.4 Z" id="Path" fill="#FBC198"></path>
                <path d="M39.9,3.9 C39.9,3.9 37,5.3 37,9.6 C37,13.9 37,23.9 39.9,23.9 C42.8,23.9 47.8,20.3 47.8,20.3 C47.8,20.3 37.8,13.9 39.9,3.9 Z" id="Path" fill="#FBC198"></path>
                <path d="M56.8,46.7 C55.6,38.3 56.3,33 58.5,32.1 L58.4,32 L56,31.3 C53.9,33.7 53.4,38.9 54.6,47 C55.6,54 57.4,60.7 57.4,60.8 L59.5,60.2 C59.6,60.1 57.8,53.5 56.8,46.7 Z" id="Path" fill="#126AA0"></path>
                <polygon id="Path" fill="#126AA0" points="55 60.5 67.9 57.6 76.5 89.1 55 94.8"></polygon>
                <polygon id="Path" fill="#FBC198" points="75 86.2 72.9 92.7 72.9 97.7 73.6 97.7 74.3 94.1 75 97.7 75 101.3 75.7 101.3 78.6 97.7 77.9 92 77.9 87.7"></polygon>
                <path d="M63.2,31.9 C63.2,31.9 70.1,30.4 75.1,45.4 C80.1,60.4 81.5,62.6 81.5,62.6 L77.9,89.1 L74.3,88.4 L74.3,62.6 L64.3,44 L63.2,31.9 Z" id="Path" fill="#FF6666"></path>
                <polygon id="Path" fill="#F59267" points="36.5 16.6 37.6 11 39.1 16.4"></polygon>
            </g>
            <path d="M932,94.3 C932,94.3 948.1,125.7 957.5,130.7 C972,138.4 994.1,110.1 994.1,110.1 L991.1,106.2 C991.1,106.2 969,121.2 963.3,122.4 C959.2,117.1 945.4,83.1 945.4,83.1 C945.4,83.1 941.4,75.8 935.4,79.7 C929.3,83.6 932,94.3 932,94.3 L932,94.3 Z" id="Path" fill="#FBC198" fill-rule="nonzero"></path>
            <path d="M1001.5,98.4 C1001.9,98.3 1006.1,98.3 1008.3,98.4 C1008.8,98.4 1009.1,99 1008.7,99.4 C1008.7,99.4 1005.1,105.6 1002.3,106.5 C999.4,107.4 996.3,108.4 996.3,108.4 L994,110 L991,106.1 L994,102.7 L994,98.8 L997.9,94.6 C997.9,94.6 998.7,96.4 998.3,96.9 C997.8,97.4 996.6,98.9 996.6,98.9 L996.9,100.1 L1001.5,98.4 L1001.5,98.4 Z" id="Path" fill="#FBC198" fill-rule="nonzero"></path>
            <path d="M1007.8,96.2 L1003.7,90 C1003.5,89.6 1002.5,89.8 1002.3,90.2 L993.8,104.4 C993.6,104.7 993.6,105.1 993.8,105.4 L997.1,111.8 C997.5,112.2 998.3,111.9 998.5,111.6 L1007.7,97.3 C1007.9,96.9 1008,96.5 1007.8,96.2 L1007.8,96.2 Z" id="Path" fill="#855969" fill-rule="nonzero"></path>
            <path d="M1007,96.4 L1002.9,90.2 C1002.7,90 1002.5,90 1002.3,90.3 L993.1,104.6 C992.9,104.9 992.9,105.3 993.1,105.6 L997.2,111.8 C997.4,112 997.6,112 997.8,111.7 L1007,97.4 C1007.1,97.1 1007.2,96.6 1007,96.4 L1007,96.4 Z" id="Path" fill="#9E6A7C" fill-rule="nonzero"></path>
            <path d="M1007,96.4 L1002.9,90.2 C1002.7,90 1002.5,90 1002.3,90.3 L993.1,104.6 C992.9,104.9 992.9,105.3 993.1,105.6 L997.2,111.8 C997.4,112 997.6,112 997.8,111.7 L1007,97.4 C1007.1,97.1 1007.2,96.6 1007,96.4 L1007,96.4 Z" id="Path" fill="#9E6A7C" fill-rule="nonzero"></path>
            <path d="M1002.6,90.9 L993.7,104.7 C993.6,104.8 993.6,105.1 993.7,105.1 L997.5,110.8 L1006.4,97 C1006.5,96.9 1006.5,96.6 1006.4,96.6 L1006.4,96.6 L1002.6,90.9 L1002.6,90.9 Z" id="Path" fill="#855969" fill-rule="nonzero"></path>
            <path d="M943.8,139.2 C943.8,139.2 939.1,187 929.6,207.5 C918.9,230.8 893.5,257.8 893.5,257.8 L890.2,255.6 C890.2,255.6 911,214.1 916.8,202.2 C921,187.1 923.6,174.5 922.2,164.7 C920.3,151.7 919.4,145.9 921.2,141 C922.5,137.5 943.8,139.2 943.8,139.2 L943.8,139.2 Z" id="Path" fill="#FBC198" fill-rule="nonzero"></path>
            <path d="M945.2,140.2 C946.3,161.8 939.1,186.9 929.6,207.5 C918.9,230.8 897.6,256.1 897.6,256.1 L891.1,252.7 C891.1,252.7 912.1,215.6 915,202 C917.9,188.4 918.9,177.1 920,166.4 C921.4,153.3 919.5,145.7 921.3,140.7 C922.5,137.5 944.1,118.6 945.2,140.2 L945.2,140.2 Z" id="Path" fill="#33CCFF" fill-rule="nonzero"></path>
            <path d="M887.2,260.1 C887.2,260.1 898,268.1 899.9,268.8 C900.8,269.1 910.1,268.8 910.1,268.8 L901.7,265.8 L893.5,257.9 L890.2,255.7 L887.2,260.1 L887.2,260.1 Z" id="Path" fill="#FBC198" fill-rule="nonzero"></path>
            <path d="M893.5,256.9 C893.8,256.8 894.2,257.2 894.2,257.2 C894.2,257.2 893.7,257.6 893.8,257.9 C894,258.3 895.3,259.5 895.3,259.5 L894,260.1 C894,260.1 892.4,258.4 892.9,257.4 C893.1,257.4 893.3,257 893.5,256.9 L893.5,256.9 Z" id="Path" fill="#919D9D" fill-rule="nonzero"></path>
            <path d="M889.6,256.3 C889.6,256.3 890.4,258.2 891.2,258.7 C891.8,259 892.9,258.5 893.5,258.2 C893.7,258.1 894,258.1 894.2,258.3 L901.7,265.4 C901.1,265.4 909.6,267.3 909.8,267.3 C910,267.3 910.2,268.7 910.2,268.7 C910.2,268.7 901.4,268.7 900,268.9 C898.6,269.1 887,260.2 887,260.2 L889.6,256.3 L889.6,256.3 Z" id="Path" fill="#485F64" fill-rule="nonzero"></path>
            <path d="M895.9,259 L895.9,259 C896,259.1 896,259.3 895.9,259.5 L895.3,260.1 C895.2,260.2 895,260.2 894.8,260.1 L894.8,260.1 C894.7,260 894.7,259.8 894.8,259.6 L895.4,259 C895.6,258.9 895.8,258.9 895.9,259 L895.9,259 Z" id="Path" fill="#919D9D" fill-rule="nonzero"></path>
            <path d="M897.3,260.4 L897.3,260.4 C897.4,260.5 897.4,260.7 897.3,260.9 L896.7,261.5 C896.6,261.6 896.4,261.6 896.2,261.5 L896.2,261.5 C896.1,261.4 896.1,261.2 896.2,261 L896.8,260.4 C897,260.3 897.2,260.3 897.3,260.4 L897.3,260.4 Z" id="Path" fill="#919D9D" fill-rule="nonzero"></path>
            <path d="M898.8,261.8 L898.8,261.8 C898.9,261.9 898.9,262.1 898.8,262.3 L898.2,262.9 C898.1,263 897.9,263 897.7,262.9 L897.7,262.9 C897.6,262.8 897.6,262.6 897.7,262.4 L898.3,261.8 C898.4,261.7 898.6,261.7 898.8,261.8 L898.8,261.8 Z" id="Path" fill="#919D9D" fill-rule="nonzero"></path>
            <path d="M900.3,263.2 L900.3,263.2 C900.4,263.3 900.4,263.5 900.3,263.7 L899.7,264.3 C899.6,264.4 899.4,264.4 899.2,264.3 L899.2,264.3 C899.1,264.2 899.1,264 899.2,263.8 L899.8,263.2 C899.9,263.1 900.1,263.1 900.3,263.2 L900.3,263.2 Z" id="Path" fill="#919D9D" fill-rule="nonzero"></path>
            <path d="M904.9,266.2 L904.9,268.8 L899.9,268.9 L886.9,260.2 L886.3,261.2 L899.9,270 L910.6,269.8 C910.6,269.8 910.9,267.6 909.3,267 C907.2,266.3 904.9,266.2 904.9,266.2 L904.9,266.2 Z" id="Path" fill="#919D9D" fill-rule="nonzero"></path>
            <path d="M958.4,110.9 C951.9,99.9 945.4,82.7 944.1,80.7 C942.8,78.6 938.6,74.1 932.3,77.6 C921.6,83.3 926.9,95.3 926.9,95.3 C926.9,95.3 935.2,108.7 943.5,119.4 L958.4,110.9 L958.4,110.9 Z" id="Path" fill="#1370B5" fill-rule="nonzero"></path>
            <path d="M950,141.6 C950,141.6 963.3,187.4 963.8,207.2 C964.3,228 969.7,268.5 969.7,268.5 L964.7,266.9 C964.7,266.9 953,229.3 951.3,210.2 C946.2,190.4 934.6,161.4 931,151.3 C927.2,140.6 939.5,129.5 939.5,129.5 L950,141.6 L950,141.6 Z" id="Path" fill="#FBC198" fill-rule="nonzero"></path>
            <path d="M950,141.6 C950,141.6 963.1,186.3 964.9,206.1 C966.9,228.2 969.6,260.3 969.6,260.3 L962.2,261.1 C962.2,261.1 953.8,229.6 950.4,208.3 C945.3,188.5 928.5,160.9 924.9,150.8 C921.1,140.1 939.5,129.4 939.5,129.4 L950,141.6 L950,141.6 Z" id="Path" fill="#33CCFF" fill-rule="nonzero"></path>
            <path d="M943.4,74.7 C936.9,74.7 925.7,73.6 921.1,88 C918.8,95.3 922.5,119.4 922.5,119.4 L919.9,144.5 L951.3,144.2 L950.3,126.7 C950.3,126.7 951.5,103.5 952.1,96.5 C953.2,83.2 950.3,74.7 943.4,74.7 L943.4,74.7 Z" id="Path" fill="#2287C4" fill-rule="nonzero"></path>
            <path d="M917,97 C917,97 911.9,117.5 914,137.5 C916.1,157.9 921.9,170.2 921.9,170.2 L926.9,167.7 C926.9,167.7 924.1,150.3 924.8,136.3 C925.5,121.9 931.2,101.2 933,96.6 C937.6,84.7 935.4,80.8 928.7,79.7 C922.1,78.6 917,97 917,97 L917,97 Z" id="Path" fill="#FBC198" fill-rule="nonzero"></path>
            <path d="M926.5,167.6 L929.3,168.4 C930.3,168.7 931.2,169.3 931.8,170.2 L934.4,174 C934.8,174.5 934.6,175.3 934,175.6 C931.9,176.6 927.5,178.6 926.6,178.2 C925.3,177.7 922.7,173 922.7,173 L921.8,169.6 L926.5,167.6 L926.5,167.6 Z" id="Path" fill="#FBC198" fill-rule="nonzero"></path>
            <path d="M929.2,168.5 L932.3,169 C932.6,169 932.9,169.2 933.1,169.5 L935.4,172.4 L934.4,172.6 C934,172.5 933.6,172.2 933.3,171.8 L932.3,171 L931.2,171.2 L929.2,168.5 L929.2,168.5 Z" id="Path" fill="#FBC198" fill-rule="nonzero"></path>
            <path d="M912.7,126.3 L926.4,128.9 C927.9,116.1 932.8,100.3 934,97.1 C938.6,85.2 935.8,79.2 929.3,77.8 C921.2,76.1 917,97 917,97 C917,97 912.7,111.4 912.7,126.3 L912.7,126.3 Z" id="Path" fill="#1370B5" fill-rule="nonzero"></path>
            <polygon id="Path" fill="#F5BFB4" fill-rule="nonzero" points="964.4 270.7 989 271.9 969.2 265.9 964.8 266.9"></polygon>
            <path d="M968.6,264.3 C968.8,264.1 969.4,264.2 969.4,264.2 C969.4,264.2 969.2,264.8 969.5,265 C969.9,265.3 971.6,265.8 971.6,265.8 L970.8,266.7 C970.8,266.7 968.5,266.1 968.4,265 C968.5,265 968.4,264.5 968.6,264.3 L968.6,264.3 Z" id="Path" fill="#919D9D" fill-rule="nonzero"></path>
            <path d="M964.3,266 C964.3,266 966,267.2 966.9,267.2 C967.5,267.2 968.2,266.1 968.6,265.5 C968.7,265.3 969,265.2 969.2,265.2 C969.2,265.2 987.3,270.1 988.2,270.5 C989.2,271 989.3,271.8 989.3,271.8 L964.2,270.7 L964.3,266 L964.3,266 Z" id="Path" fill="#485F64" fill-rule="nonzero"></path>
            <path d="M971,265.1 L971,265.1 C971.2,265.1 971.3,265.3 971.3,265.5 L971.1,266.3 C971.1,266.5 970.9,266.6 970.7,266.6 L970.7,266.6 C970.5,266.6 970.4,266.4 970.4,266.2 L970.6,265.4 C970.6,265.2 970.8,265.1 971,265.1 L971,265.1 Z" id="Path" fill="#919D9D" fill-rule="nonzero"></path>
            <path d="M972.9,265.5 L972.9,265.5 C973.1,265.5 973.2,265.7 973.2,265.9 L973,266.7 C973,266.9 972.8,267 972.6,267 L972.6,267 C972.4,267 972.3,266.8 972.3,266.6 L972.5,265.8 C972.6,265.6 972.7,265.5 972.9,265.5 L972.9,265.5 Z" id="Path" fill="#919D9D" fill-rule="nonzero"></path>
            <path d="M974.9,266 L974.9,266 C975.1,266 975.2,266.2 975.2,266.4 L975,267.2 C975,267.4 974.8,267.5 974.6,267.5 L974.6,267.5 C974.4,267.5 974.3,267.3 974.3,267.1 L974.5,266.3 C974.5,266.1 974.7,266 974.9,266 L974.9,266 Z" id="Path" fill="#919D9D" fill-rule="nonzero"></path>
            <path d="M976.9,266.5 L976.9,266.5 C977.1,266.5 977.2,266.7 977.2,266.9 L977,267.7 C977,267.9 976.8,268 976.6,268 L976.6,268 C976.4,268 976.3,267.8 976.3,267.6 L976.5,266.8 C976.6,266.6 976.7,266.5 976.9,266.5 L976.9,266.5 Z" id="Path" fill="#919D9D" fill-rule="nonzero"></path>
            <path d="M979.1,267.1 L979.1,267.1 C979.3,267.1 979.4,267.3 979.4,267.5 L979.2,268.3 C979.2,268.5 979,268.6 978.8,268.6 L978.8,268.6 C978.6,268.6 978.5,268.4 978.5,268.2 L978.7,267.4 C978.7,267.2 978.9,267.1 979.1,267.1 L979.1,267.1 Z" id="Path" fill="#919D9D" fill-rule="nonzero"></path>
            <path d="M983.9,269.2 L983.8,271.6 L964.2,270.7 L964.2,272.1 L989.4,272.9 C989.4,272.9 989.9,271.2 988.4,270.5 C986.2,269.6 983.9,269.2 983.9,269.2 L983.9,269.2 Z" id="Path" fill="#4E6080" fill-rule="nonzero"></path>
            <path d="M983.9,269.2 L983.8,271.6 L964.2,270.7 L964.2,272.1 L989.4,272.9 C989.4,272.9 989.9,271.2 988.4,270.5 C986.2,269.6 983.9,269.2 983.9,269.2 L983.9,269.2 Z" id="Path" fill="#919D9D" fill-rule="nonzero"></path>
            <path d="M935.9,44 C942.1,41.4 952.6,41.1 951.9,52.2 C951.2,63.3 944.5,72.8 944.5,72.8 L931.7,70.2 C931.8,70.2 929.8,46.6 935.9,44 L935.9,44 Z" id="Path" fill="#FBC198" fill-rule="nonzero"></path>
            <path d="M951.9,50.4 C951.1,52.1 945.4,50.8 938.3,48.7 L937.6,53.3 C937.6,53.3 935.2,50.2 933.5,52.7 C931.8,55.1 935.5,57.1 935.5,57.1 L932.8,62.4 L931.4,60.8 C931.4,60.8 931,51.2 933,46.4 C935.1,41.6 942.7,41.8 949.9,43.2 C951,43.4 952.9,43.8 955.4,42.6 C955.8,43.8 954.3,49.2 951.9,50.4 L951.9,50.4 Z" id="Path" fill="#F59267" fill-rule="nonzero"></path>
            <path d="M932,66.3 L929.7,77.7 C931.6,78.6 939.2,82.1 941.2,78 L942.8,61.7 L932,66.3 Z" id="Path" fill="#FBC198" fill-rule="nonzero"></path>
            <polygon id="Path" fill="#F59267" fill-rule="nonzero" points="946.3 63.7 950.4 57.5 949 64.8"></polygon>
        </g>
    </g>
</svg>